<?xml version="1.0" encoding="UTF-8"?>
<svg id="Capa_1" xmlns="http://www.w3.org/2000/svg" version="1.1" viewBox="0 0 2732 7035.6">
  <!-- Generator: Adobe Illustrator 29.3.0, SVG Export Plug-In . SVG Version: 2.1.0 Build 146)  -->
  <defs>
    <style>
      .st0 {
        fill: #e299cb;
      }
    </style>
  </defs>
  <path class="st0" d="M1768.3,363.4c68.3-11.8,133.9-35.1,200.2-54.3,71.1-19.4,129.8-28.9,204-25.7,55.8,4.1,98.9,13.6,148.1,39.2,49.1,28.1,83.9,73.3,96.2,128.6,2.5,11.4,3.9,22.9,3.7,34.5,0,8.2-1.4,12-.4,11.6,1.1-.4,4.6-5.7,5.1-13.5.9-13.5-.5-27.8-3.5-40.2-15.9-65.1-49.1-98.8-95.9-126.3-49.2-26.3-97-32.5-153.1-37.1-74.6-3.9-133.9,5.3-205.6,24.3-65.7,18.6-132.2,41.7-199.9,52.9-8.1,1.3-6.5,7.3,1.1,6M1652.5,367.4c29.1,2.8,59,2.4,89.9-.3,9.5-.8,10.2-7.7-.8-6.3-35.3,4.7-63.7,2.6-88.8,0-5.1-.5-8.3,4.7-.4,6.5ZM1591.7,355.3c11.8,3.1,24.4,6.8,36.6,9,6.6,1.2,10.2-5,1.9-6.5-12.3-2.1-24.1-5-36.1-8.5-10.1-3-8.6,4.4-2.4,6Z"/>
  <g>
    <path d="M316.3,599.6c-15.6,0-29.2-2.5-40.8-7.6-11.6-5.1-21.3-11.8-29.1-20.1-7.8-8.4-13.6-17.9-17.4-28.5-3.8-10.6-5.8-21.5-5.8-32.6s1.9-22,5.8-32.7c3.8-10.7,9.6-20.2,17.4-28.5,7.8-8.3,17.5-15,29.1-20.1,11.6-5.1,25.2-7.7,40.8-7.7s28.8,2.6,40.5,7.7c11.6,5.1,21.3,11.9,29.1,20.1,7.8,8.3,13.6,17.8,17.4,28.5,3.8,10.7,5.8,21.6,5.8,32.7s-1.9,22-5.8,32.6c-3.8,10.6-9.7,20.1-17.4,28.5-7.8,8.4-17.5,15.1-29.1,20.1-11.6,5.1-25.1,7.6-40.5,7.6M316.3,596.3c12.2,0,23-2.4,32.4-7.3,9.4-4.9,17.1-11.4,23.2-19.4,6.1-8,10.7-17.2,13.8-27.4,3.1-10.2,4.7-20.7,4.7-31.5s-1.6-21.3-4.7-31.6c-3.1-10.3-7.7-19.4-13.8-27.5-6.1-8-13.8-14.5-23-19.4-9.2-4.9-20.1-7.3-32.5-7.3s-23.3,2.4-32.5,7.3c-9.2,4.9-17,11.4-23.2,19.5-6.2,8.1-10.9,17.3-14,27.6-3.1,10.3-4.7,20.7-4.7,31.3s1.6,21.3,4.7,31.5c3.1,10.2,7.8,19.3,14,27.4,6.2,8,14,14.5,23.2,19.4,9.2,4.9,20.1,7.3,32.5,7.3Z"/>
    <path d="M427.8,598.1v-1.2c2.4,0,4.9-1.4,7.6-4.1,2.6-2.7,4-7.2,4-13.3v-141.3c0-3.6-.5-6.7-1.6-9.2-1.1-2.5-3.7-3.7-7.7-3.7v-1.2h19.8l118.7,150.5v-131.8c0-6.1-1.4-10.6-4.1-13.3-2.8-2.7-5.2-4.1-7.4-4.1v-1.2h27.3v1.2c-2.2,0-4.6,1.4-7.4,4.1-2.8,2.7-4.1,7.2-4.1,13.3v155.5h-4.3l-124.4-157.7v139.1c0,6.1,1.3,10.6,4,13.3,2.6,2.7,5.2,4.1,7.6,4.1v1.2h-27.7Z"/>
    <path d="M697.5,422c4.6,0,9.4.5,14.4,1.6,5,1.1,9.7,2.6,14,4.6,4.3,2,7.9,4.4,10.8,7.2,2.9,2.8,4.3,6.1,4.3,9.7s-.7,3.4-2.2,4.4c-1.4.9-3.1,1.4-5,1.4s-3.7-.5-5.2-1.4c-1.6-.9-2.5-2.2-2.7-3.9-.5-5.1-3.1-9.8-7.9-14.1-4.8-4.2-11.7-6.3-20.6-6.3-12.7,0-23.8,2.4-33.2,7.2-9.4,4.8-17.2,11.1-23.5,18.9-6.3,7.8-10.9,16.8-14.1,26.9-3.1,10.1-4.7,20.4-4.7,30.9s1.7,20.8,5,31c3.4,10.2,8.3,19.3,14.8,27.3,6.5,8,14.5,14.5,24.2,19.4,9.6,5,20.8,7.5,33.6,7.5s17.3-.9,23.8-2.7c6.5-1.8,12.4-4.8,17.7-9l3.6,2.5c-5.8,4.3-12.5,7.8-20.1,10.4-7.7,2.7-16.7,4-27,4-15.8,0-29.6-2.5-41.4-7.6-11.8-5.1-21.5-11.8-29.3-20.1-7.8-8.4-13.7-17.9-17.6-28.5-4-10.6-5.9-21.5-5.9-32.6s2-22,5.9-32.6c4-10.6,9.8-20.1,17.6-28.4,7.8-8.3,17.6-15,29.3-20.1,11.7-5.1,25.5-7.7,41.4-7.7"/>
    <path d="M878.4,424l7.6,23.4h-2.2c-.5-2-1.8-4.1-4-6.5-2.2-2.3-5-4.5-8.5-6.6-3.5-2.1-7.6-3.8-12.2-5.2-4.7-1.4-9.7-2.1-14.9-2.1h-43.2c-4.8,0-7.6,1.3-8.5,3.9-.8,2.6-1.3,5.9-1.3,10.1v68.7h30.6c11.5,0,19.3-1.5,23.4-4.6,4.1-3.1,6.1-6.4,6.1-10.1h2.2v32.3h-2.2c0-3.6-2-7-6.1-10.1-4.1-3.1-11.9-4.6-23.4-4.6h-30.6v68.4c0,4.3.4,7.7,1.3,10.2.8,2.5,3.7,3.8,8.5,4h48.9c5.3-.2,10.1-1,14.6-2.5,4.4-1.5,8.3-3.2,11.5-5.2,3.2-2,5.8-4.1,7.7-6.3,1.9-2.2,3.1-4.3,3.6-6.1h2.5l-7.9,23.1h-116.9v-1.5c4.6,0,7.2-1.5,8.1-4.6.8-3.1,1.3-6.8,1.3-11.1v-140c0-4.1-.4-7.8-1.3-10.9-.8-3.2-3.5-4.7-8.1-4.7v-1.2h113.3Z"/>
    <path d="M983.4,440.9c0-4.1-.4-7.8-1.3-10.9-.8-3.1-3.5-4.7-8.1-4.7v-1.2h36v1.2c-4.8,0-7.6,1.6-8.5,4.7-.8,3.2-1.3,6.8-1.3,10.9v119.7c0,6,1.4,11.2,4.3,15.7,2.9,4.5,6.7,8.2,11.3,11.1,4.7,2.9,9.9,5.1,15.8,6.6,5.9,1.5,11.9,2.2,18.2,2.2s12.8-.8,19.1-2.4c6.2-1.6,11.7-3.9,16.5-7,4.8-3.1,8.7-6.9,11.7-11.4,3-4.6,4.5-9.9,4.5-16v-116.7c0-6.1-1.3-10.6-4-13.3-2.6-2.7-5.2-4.1-7.6-4.1v-1.2h27.7v1.2c-2.4,0-4.9,1.4-7.6,4.1-2.6,2.7-4,7.2-4,13.3v116.7c0,7-1.8,13-5.4,18.2-3.6,5.1-8.3,9.5-14,12.9-5.8,3.5-12.3,6.1-19.8,7.8-7.4,1.7-15,2.6-22.7,2.6s-15.2-.9-22.5-2.6c-7.3-1.7-13.8-4.3-19.6-7.6-5.8-3.3-10.4-7.5-13.8-12.6-3.5-5.1-5.2-10.9-5.2-17.5v-119.7Z"/>
    <path d="M1134.8,598.1v-1.5c4.6,0,7.2-1.5,8.1-4.6.8-3.1,1.3-6.8,1.3-11.1v-140.1c0-4.1-.4-7.8-1.3-10.9-.8-3.1-3.5-4.7-8.1-4.7v-1.2h45.7c12,0,22.5,1.2,31.5,3.7,9,2.5,16.4,5.8,22.3,9.8,5.9,4.1,10.3,8.7,13.3,13.8,3,5.1,4.5,10.4,4.5,15.9s-1.5,10.5-4.5,15.7c-3,5.1-7.4,9.7-13.3,13.8-5.9,4.1-13.3,7.3-22.3,9.8-9,2.5-19.5,3.7-31.5,3.7h-19.4v70.6c0,4.3.4,8,1.3,11.1.8,3.1,3.7,4.6,8.5,4.6v1.5h-36ZM1161.1,507.3h19.4c8.9,0,16.7-1.2,23.4-3.5,6.7-2.3,12.3-5.3,16.7-9.1,4.4-3.7,7.8-8,10.1-12.8,2.3-4.8,3.4-9.7,3.4-14.7s-1.1-9.9-3.4-14.8c-2.3-4.9-5.6-9.2-10.1-12.9-4.4-3.7-10-6.8-16.7-9.1-6.7-2.3-14.5-3.5-23.4-3.5h-9.7c-4.8,0-7.6,1.3-8.5,3.9-.8,2.6-1.3,5.9-1.3,10.1v66.4Z"/>
    <path d="M1361.7,599.6c-15.6,0-29.2-2.5-40.8-7.6-11.6-5.1-21.3-11.8-29.1-20.1-7.8-8.4-13.6-17.9-17.4-28.5-3.8-10.6-5.8-21.5-5.8-32.6s1.9-22,5.8-32.7c3.8-10.7,9.6-20.2,17.4-28.5,7.8-8.3,17.5-15,29.1-20.1,11.6-5.1,25.2-7.7,40.8-7.7s28.8,2.6,40.5,7.7c11.6,5.1,21.3,11.9,29.1,20.1,7.8,8.3,13.6,17.8,17.4,28.5,3.8,10.7,5.8,21.6,5.8,32.7s-1.9,22-5.8,32.6c-3.8,10.6-9.7,20.1-17.4,28.5-7.8,8.4-17.5,15.1-29.1,20.1-11.6,5.1-25.1,7.6-40.5,7.6M1361.7,596.3c12.2,0,23-2.4,32.4-7.3,9.3-4.9,17.1-11.4,23.2-19.4,6.1-8,10.7-17.2,13.8-27.4,3.1-10.2,4.7-20.7,4.7-31.5s-1.6-21.3-4.7-31.6c-3.1-10.3-7.7-19.4-13.8-27.5-6.1-8-13.8-14.5-23-19.4-9.2-4.9-20.1-7.3-32.5-7.3s-23.3,2.4-32.5,7.3c-9.2,4.9-17,11.4-23.2,19.5-6.2,8.1-10.9,17.3-14,27.6-3.1,10.3-4.7,20.7-4.7,31.3s1.6,21.3,4.7,31.5c3.1,10.2,7.8,19.3,14,27.4,6.2,8,14,14.5,23.2,19.4,9.2,4.9,20.1,7.3,32.5,7.3Z"/>
    <path d="M1473.2,598.1v-1.2c2.4,0,4.9-1.4,7.6-4.1,2.6-2.7,4-7.2,4-13.3v-141.3c0-3.6-.5-6.7-1.6-9.2-1.1-2.5-3.7-3.7-7.7-3.7v-1.2h19.8l118.7,150.5v-131.8c0-6.1-1.4-10.6-4.1-13.3-2.8-2.7-5.2-4.1-7.4-4.1v-1.2h27.3v1.2c-2.2,0-4.6,1.4-7.4,4.1-2.8,2.7-4.1,7.2-4.1,13.3v155.5h-4.3l-124.4-157.7v139.1c0,6.1,1.3,10.6,4,13.3,2.6,2.7,5.2,4.1,7.6,4.1v1.2h-27.7Z"/>
    <path d="M1830,598.1v-1.2c3.1,0,5.3-.8,6.7-2.2,1.3-1.5,2-3.4,2-5.7s-.6-4.6-1.8-8l-13.3-33.1h-78.4l-11.9,33.8c-.5,1.3-.8,2.9-.9,4.6-.1,1.7,0,3.4.5,5,.5,1.6,1.3,2.9,2.5,4,1.2,1.1,2.9,1.6,5,1.6v1.2h-27.3v-1.2c1.7,0,3.3-.5,4.9-1.6,1.6-1.1,3-2.4,4.3-4,1.3-1.6,2.6-3.3,3.8-5.2,1.2-1.9,2.2-3.9,2.9-5.9l56.8-157.5h4.7l63.7,157.5c1.9,4.3,4,8.2,6.3,11.6,2.3,3.4,5.4,5.1,9.5,5.1v1.2h-39.9ZM1782.1,443.9l-36,100.7h76.2l-40.3-100.7Z"/>
    <path d="M1989.7,598.1v-.5c2.2,0,4.2-.5,6.1-1.6,1.9-1.1,3.6-2.4,5-4.1,1.4-1.7,2.5-3.5,3.2-5.5.7-2,1.1-3.8,1.1-5.5v-154h-17.3c-5.5,0-10.6.7-15.1,2.1-4.6,1.4-8.6,3.2-12,5.2-3.5,2.1-6.3,4.3-8.5,6.6-2.2,2.3-3.5,4.5-4,6.5h-2.5l7.9-23.4h119.8l7.6,23.4h-2.2c-.5-2-1.8-4.1-4-6.5-2.2-2.3-5-4.5-8.5-6.6-3.5-2.1-7.6-3.8-12.2-5.2-4.7-1.4-9.7-2.1-14.9-2.1h-17.3v154c0,1.7.4,3.5,1.1,5.5.7,2,1.8,3.8,3.2,5.5,1.4,1.7,3.1,3,5,4.1,1.9,1.1,4,1.6,6.1,1.6v.5h-47.8Z"/>
    <path d="M2091.1,598.1v-1.5c4.6,0,7.2-1.5,8.1-4.6.8-3.1,1.3-6.8,1.3-11.1v-140.1c0-4.1-.4-7.8-1.3-10.9-.8-3.2-3.5-4.7-8.1-4.7v-1.2h36v1.2c-4.8,0-7.6,1.6-8.5,4.7-.8,3.2-1.3,6.8-1.3,10.9v140.1c0,4.3.4,8,1.3,11.1.8,3.1,3.7,4.6,8.5,4.6v1.5h-36Z"/>
    <path d="M2233.1,578.2l-73.4-132.1v133.3c0,6.1,1.4,10.6,4.1,13.3,2.8,2.7,5.3,4.1,7.7,4.1l-.4,1.2h-27.3v-1.2c2.4,0,4.9-1.4,7.6-4.1,2.6-2.7,4-7.2,4-13.3v-142c0-3.3-.5-6.2-1.6-8.6-1.1-2.4-3.7-3.6-7.7-3.6v-1.2h19.4l75.5,136.6,61.9-136.6h19.8v1.2c-2.4,0-4.2.4-5.4,1.2-1.2.8-2.1,2-2.7,3.5-.6,1.5-1,3.2-1.1,5.1-.1,1.9-.2,3.9-.2,5.8v140.1c0,2.2,0,4.2.2,6.1.1,1.9.5,3.6,1.1,5,.6,1.4,1.5,2.5,2.7,3.4,1.2.8,3,1.2,5.4,1.2v1.5h-36v-1.5c4.6,0,7.2-1.5,8.1-4.6.8-3.1,1.3-6.8,1.3-11.1v-132.6l-58.3,129.9h-4.7Z"/>
    <path d="M2455,424l7.6,23.4h-2.2c-.5-2-1.8-4.1-4-6.5-2.2-2.3-5-4.5-8.5-6.6-3.5-2.1-7.6-3.8-12.2-5.2-4.7-1.4-9.7-2.1-14.9-2.1h-43.2c-4.8,0-7.6,1.3-8.5,3.9-.8,2.6-1.3,5.9-1.3,10.1v68.7h30.6c11.5,0,19.3-1.5,23.4-4.6,4.1-3.1,6.1-6.4,6.1-10.1h2.2v32.3h-2.2c0-3.6-2-7-6.1-10.1-4.1-3.1-11.9-4.6-23.4-4.6h-30.6v68.4c0,4.3.4,7.7,1.3,10.2.8,2.5,3.7,3.8,8.5,4h48.9c5.3-.2,10.1-1,14.6-2.5,4.4-1.5,8.3-3.2,11.5-5.2,3.2-2,5.8-4.1,7.7-6.3,1.9-2.2,3.1-4.3,3.6-6.1h2.5l-7.9,23.1h-116.9v-1.5c4.6,0,7.2-1.5,8.1-4.6.8-3.1,1.3-6.8,1.3-11.1v-140c0-4.1-.4-7.8-1.3-10.9-.8-3.2-3.5-4.7-8.1-4.7v-1.2h113.3Z"/>
  </g>
  <path class="st0" d="M1947,697.6c2.2-2.6,5-5.3,8.7-8.1,3.6-2.8,7.2-4.7,10.7-5.6,2.9-.9,5.8-1,8.5-.3,2.7.7,4.4,2.4,5,5,.6,2.4,0,5-1.8,7.8-1.8,2.8-4.1,5.3-6.9,7.6-2.8,2.2-5.9,4.1-9.1,5.6-3.2,1.5-6,2.2-8.4,2.2s-2.8-.3-3.8-.8c-1.6-.7-1.9-1.6-.9-2.5.6-.6,1.3-.7,2.1-.3,1.8.8,4.2.5,7.3-.7,3.1-1.2,6.2-2.9,9.1-5,2.9-2.1,5.3-4.5,7.2-7,1.9-2.5,2.4-4.6,1.6-6.3-.2-.7-1.1-1.1-2.6-1.1-1.8.2-4,1.1-6.8,2.8-2.7,1.7-4.8,3.1-6.2,4.2-2.3,1.7-4.7,3.8-7,6.4-2.3,2.6-4.1,5-5.3,7.3-2.2,3.7-3.7,7.4-4.6,10.9-.9,3.6-1,6.7-.4,9.5.6,2.8,2,5.1,4.1,6.9,2.2,1.8,5.2,2.7,9.1,2.7s11-.9,17-2.8c6.1-1.9,12.2-4.2,18.3-7.1,6.2-2.9,12.2-6,18.1-9.2,4.9-2.7,9.3-5.1,13.4-7.3,0-.3.2-.6.4-1,1.4-2.4,3.6-5.2,6.6-8.3,3-3.1,6.4-6,10.1-8.8,3.7-2.8,7.6-5.1,11.6-7,4-1.9,7.6-2.8,10.7-2.8s4.3,1,5.3,3.1c.2.6.3,1.6.3,3.1s0,2.9-.3,3.6c-1,2.6-2.7,5.7-5.3,9.2-2.5,3.5-6.4,7.9-11.4,13.2-.4.6-.8,1.1-1.2,1.5-.4.5-.8.9-1.2,1.3-.4.4-.7.8-.9,1.1h1.2c1.6-.4,3.3-.6,5.3-.7,2,0,3.8,0,5.6.1,7.6.6,12.9,3.7,15.9,9.5.8,1.7,1.4,3.5,1.8,5.5.4,2,.6,4.3.6,7.1v2c22.6-11,45.5-19.6,68.1-27.3,103.2-35,244.5-76.4,267.3-190.3,2.4-5.3,7.9-5.6,6.3,2.9-21.3,110.3-178.6,159.7-274.4,191.8-42,14.1-54.4,22.2-62.3,25.7-2.4,1.1-3.8,1.8-4.4,2.1-.6.3-.9.5-.9.7-1.6,9.5-3.8,18.2-6.7,25.9-2.9,7.8-7,15.7-12,24-3.3,5.8-6.7,11.1-10.3,15.8-3.5,4.8-7.2,9.2-11.2,13.5-3.9,4.2-8.2,8.1-12.9,11.8-4.7,3.6-10,7.2-15.9,10.8-1.4.9-3,1.8-4.8,2.5-1.9.7-3.3,1.3-4.3,1.7-3.1,1.1-6.4,1.5-9.7,1.1-6.8-.9-11.1-4.7-12.6-11.2-.4-1.1-.5-2.8-.4-4.9.1-2.1.3-4,.7-5.5,1.8-10.5,5.8-19.9,12-28.4,3.2-4.3,6.6-8.4,10.4-12.3h0s0,0,0,0c3.7-3.8,7.7-7.4,11.9-10.8,8.6-6.9,17.9-13.2,27.9-18.8,2.4-1.4,4.8-2.7,7.2-4,7.7-4.6,15.4-8.9,23.2-12.9.1-.6.3-1.6.4-3.1.2-2.1.4-3.8.6-5.3v-5.2c0-2-.2-3.4-.6-4.3-.4-.9-1.1-1.9-2.1-2.9-1-1-2-1.7-2.9-2.1-1-.6-2.4-1-4.1-1.3-1.8-.3-3.6-.4-5.6-.4-3.9,0-7.6.6-11.2,1.7-1.6.6-2.6.8-3.1.8s-1-.3-1.6-.8c-1.6-1.5-1.9-3.2-.9-5,.4-.9,1.7-2.8,3.8-5.6,2.2-2.8,4.4-5.6,6.8-8.4,4.1-4.7,7-8.3,8.8-10.8,1.8-2.5,2.6-4.5,2.6-6v-1.1h-.9c-2.7.4-5.8,1.5-9.1,3.2-3.3,1.8-6.6,3.9-9.7,6.4-3.1,2.5-6,5.1-8.7,7.7-2.1,2.1-3.8,4-5.1,5.7.7.7.8,1.4.2,1.9,0,.2-.3.5-.9.8-.6.4-1.2.7-1.8,1.1-4.9,2.8-10.3,5.7-16.1,8.8-5.9,3.1-11.8,6-17.8,8.7-6,2.7-12,5-18,6.9-6.1,1.9-11.8,2.8-17.3,2.8-6.7.2-11.6-1.2-15-4.1-3.3-2.9-5.3-6.5-5.9-10.9-.6-4.4.1-9.2,2.1-14.6,2-5.3,5-10.3,9.1-15M1981.6,845.3c.6,3.9,3,5.9,7.3,5.9s2.3,0,2.9-.3c5.7-1.5,11.4-4.2,17.3-8,5.9-3.8,11.5-8.2,16.7-13.2,5.3-5,10.2-10.2,14.7-15.7,4.5-5.5,8.2-10.8,11.2-15.8,2.5-4.3,4.6-8,6.2-11.1,1.6-3.1,3-6,4.3-8.8,1.3-2.8,2.4-5.7,3.4-8.8,1-3.1,2.1-7,3.5-11.6.4-2.1.7-3.3.9-3.8.2-.5.2-.7,0-.7s-1.1.4-2.6,1.1c-1.6.8-3.4,1.7-5.6,2.8-2.2,1.1-4.4,2.2-6.6,3.4-2.3,1.1-4.2,2.1-5.7,2.8-7.2,4.1-14.6,8.6-22,13.5-7.4,4.9-14.3,10.2-20.5,16.1-6.3,5.9-11.6,12.3-16.1,19.3-4.5,7-7.5,14.7-9.1,23.1-.4,1.5-.6,3.3-.6,5.3s.2,3.5.6,4.5ZM1847.2,685c2.4-18.7,5.4-37,9.1-54.9,3.7-17.9,7.5-34,11.4-48.2.2-1.5.8-2.4,1.8-2.8.4-.2,1.1-.2,2.1,0,1.4.6,2.3,1.2,2.9,2,.6.9.6,2.4,0,4.5-1.6,6.2-3.2,13.1-5,20.7-1.8,7.7-3.5,15.7-5.1,24.2-1.7,8.5-3.3,17.3-4.8,26.5-1.6,9.2-2.9,18.3-4.1,27.5-.6,5.6-1.3,11.9-2.1,18.8-.8,6.9-1.4,14-1.8,21.3-.4,7.3-.6,14.6-.7,22-.1,7.4.1,14.5.7,21.4.2,1.3.5,3.8,1,7.4.5,3.6,1.2,7.4,2.1,11.2.9,3.8,2,7.2,3.2,10.2,1.3,3,2.9,4.5,4.8,4.5s2.4-.8,4.1-2.5c1.6-1.5,3.2-3.7,5-6.6,1.8-2.9,3.6-6.2,5.6-9.9,2-3.7,4-7.7,6-11.8,2.1-4.1,4-8.1,5.7-12.1,13.5-28.8,28.1-56.8,43.7-84.2,15.7-27.4,31.6-54.8,47.9-82.3,1.2-1.9,2.5-4.1,4-6.6,1.5-2.5,2.9-4.9,4.4-7.3,1.5-2.3,2.7-4.3,3.8-6,1.1-1.7,1.8-2.5,2.2-2.5.6-.4,1.1-.3,1.6.1.5.5.6,1,.4,1.5,0,.2-.4,1-1.3,2.5-.9,1.5-1.9,3.1-2.9,4.9-1.1,1.8-2.1,3.5-3.1,5.2-1,1.7-1.7,2.8-2.1,3.4-4.5,7.5-8.9,14.9-13.2,22.1-4.3,7.3-8.6,14.7-12.9,22.1-12.3,20.9-24.3,41.9-35.8,62.8-11.5,20.9-22.7,42.7-33.5,65.3-2,3.9-4.1,8.2-6.3,12.9-2.3,4.7-4.5,9.1-6.8,13.3-2.3,4.2-4.4,7.9-6.5,11.1-2.1,3.2-3.9,5.3-5.4,6.4-1.8,1.1-3.4,1.7-5,1.7-3.7,0-6.8-1.8-9.1-5.5-2.3-3.6-4.2-7.9-5.6-12.7-1.4-4.9-2.3-9.7-2.9-14.6-.6-4.9-1-8.5-1.2-10.9-.4-6.7-.5-13.6-.4-20.7,0-7.1.3-14,.7-20.7.4-6.7.9-13.1,1.5-19.1.6-6,1.2-11.2,1.8-15.7ZM1398,695.9c2.2-6,3.6-9.3,4.4-10.1.6-.9,1.7-1.4,3.2-1.4s2.2.3,3.2,1c1,.7,1.4,1.7,1.2,3.2-.4,1.9-1.6,5.1-3.5,9.8-2.2,5-3.9,9.4-5.1,13-1.3,3.6-2.5,7.9-3.7,12.7-.8,2.4-1.2,3.9-1.3,4.5-.1.6,0,.8.1.8.4,0,1.9-1.3,4.6-3.8,2.6-2.5,7.3-7,13.9-13.6,1.2-1.1,3.1-3,5.9-5.7,2.7-2.7,5.7-5.4,9-8,3.2-2.6,6.5-4.8,9.7-6.4,3.2-1.7,5.8-2.2,7.8-1.7,2.7,1.1,3.7,5.3,2.9,12.6-.6,5.8.1,10.9,2.2,15.4,2.1,4.5,6.5,6.9,13.4,7.3,7.6.4,15-.7,22-3.2,7-2.5,14.2-5.6,21.4-9.1.3-.2.8-.4,1.4-.7.4-2.2,1.1-4.5,2-6.9,1.1-2.8,2.4-5.6,4.1-8.4,1.7-2.8,3.5-5.4,5.4-7.8,2-2.4,4.1-4.5,6.5-6.2,4.5-3,8.8-3.9,12.9-2.8,3.3.9,5.4,3.1,6.2,6.4.8,3,.4,4.9-1.2,5.6-.6.6-1.3.5-2.1-.3-.2-.2-.3-.4-.3-.7v-2.1c0-1.7-.1-2.7-.3-3.1-.4-.4-.8-.8-1.3-1.3-.5-.5-.9-.7-1.3-.7-1.4,0-2.7.5-4.1,1.4-2.3,1.5-4.5,3.5-6.5,6-2,2.5-3.7,5.3-5.3,8.3-1.6,3-2.8,6-3.8,9.1-1,3.1-1.6,5.9-1.8,8.5-.2.9-.2,2.3-.1,4.1,0,1.8.3,3.1.7,4.1.4,1.5,1,2.8,1.8,3.9l.3.3,1.2-.3c3.1-1.1,6.2-3.4,9.1-6.7,2.9-3.4,5.2-6.4,6.8-9l.6-1.1-.9-1.7c-2-4.5-2.3-8.4-.9-11.8,1.4-2.8,3.3-4.2,5.9-4.2s2,.5,2.9,1.4c.8.7,1.2,2,1.2,3.6,0,2.6-.9,5.9-2.6,9.8l-1.2,2.8.6.6c1.2,1.5,2.7,2.8,4.7,3.8,2,1,3.9,1.8,5.9,2.4,5.9,1.5,13.6,1,23.2-1.4,5.5-1.5,10.9-3.3,16.1-5.5,5.3-2.1,10.7-4.4,16.1-6.9,5.5-2.4,11-4.8,16.6-7.1,5.6-2.3,11.4-4.2,17.5-5.7,15.7-4.3,31.6-6.4,47.9-6.4s9.1.2,12.2.6c3,.4,6.8,1,11.3,2,.4.2,1.1.3,2.1.4,1,0,1.8.3,2.3.7,1.8.2,4.4.9,7.8,2.1,3.4,1.2,6.9,2.6,10.4,4.2,3.5,1.6,6.8,3.3,9.8,5.2,3,1.9,4.9,3.6,5.7,5,.4.9.4,1.8,0,2.5-.4.9-1.3,1.4-2.6,1.4s-2.7-.9-5.3-2.8c-6.8-5-13.3-8.9-19.2-11.6-6-2.7-13.4-4.6-22.2-5.7-9.6-1.1-19.3-1.1-29.2,0-9.9,1.1-19.8,3-29.8,5.6-6.1,1.7-11.9,3.7-17.6,6.2-5.7,2.4-11.3,4.9-16.9,7.4-5.6,2.5-11.1,4.9-16.6,7.1-5.5,2.2-11,4-16.4,5.3-4.1.9-8.2,1.5-12.2,1.7-4,.2-7.6,0-10.7-.6-2.2-.4-4.3-1.1-6.3-2.1-2.1-1-4-2.3-5.7-3.8-.2-.2-.4-.3-.6-.4-.2,0-.4-.2-.6-.4l-.3-.3-.3.6c-.2.2-.5.7-.9,1.4-1.4,2.1-3,4.2-5,6.3-2,2.2-3.7,3.9-5.3,5.2-2.2,1.5-4.3,2.6-6.3,3.4-2.1.7-3.9.9-5.4.6-1.8-.6-3.2-1.4-4.4-2.5-2.3-1.9-3.8-4.8-4.4-8.7-.2-1.1-.3-2.6-.3-4.3s0-1,0-1.4c-7.1,3.4-13.9,6.2-20.4,8.4-7.3,2.5-15.5,3.7-24.5,3.5-9.6-.4-16-3.2-19.1-8.5-3.1-5.3-4.7-11.9-4.7-19.8s-.4-4.2-1.2-4.2-2.3.8-4.6,2.5c-2.2,1.7-4.6,3.6-7.2,5.9-2.5,2.2-4.9,4.3-7,6.3-2.2,2-3.5,3.2-4.1,3.8-4.3,4.3-7.9,7.8-10.7,10.5-2.8,2.7-4.9,4.7-6.3,6-2.9,2.4-5.6,3.4-7.9,2.8-2.7-.7-4.1-2.9-4-6.6,0-3.6.8-7.6,2.1-11.9,1.3-4.3,2.7-8.4,4.3-12.2,1.6-3.8,2.6-6.3,3.2-7.4ZM1541.3,705.5c0,.6,0,1.2.3,2,.2.7.4,1.1.6,1.1l.3-.6c0-.4.2-.7.6-1.1.8-2.1,1.3-3.9,1.5-5.5.2-1.6,0-2.4-.6-2.4l-.3.3c-.2,0-.4,0-.6.3-1.6,1.1-2.2,3.1-1.8,5.9ZM1211.1,654.2c0-5.6,1.2-11.7,3.7-18.4,2.4-6.6,5.5-13.3,9.1-20,3.6-6.7,7.7-13.1,12.2-19.2,4.5-6.1,8.8-11.2,12.9-15.3,1-.9,2.3-2.2,4-3.8,1.7-1.6,3.5-3,5.4-4.3,2-1.3,4-2.3,6-2.9,2-.7,3.9-.6,5.4.1,2.2,1.1,3.2,3.1,3.2,6s-.2,5.4-.6,7.4c-.4,1.5-.9,3.5-1.5,6-.6,2.5-1.7,6.5-3.2,11.9-5.1,19.2-10.2,38.4-15.3,57.5-5.1,19.1-8.8,38.6-11.2,58.6-.4,3-.8,7.1-1.2,12.2-.4,5.1-.5,10.4-.4,15.8,0,5.4.4,10.6,1,15.4.6,4.9,1.6,8.6,2.9,11.2,1.6,2.8,3.6,4.2,6.2,4.2s3.2-.5,5-1.4c1.8-.9,3.5-2.1,5.1-3.5,1.7-1.4,3.2-2.8,4.7-4.3,1.5-1.5,2.6-2.7,3.4-3.6,5.1-5.8,9.9-12.4,14.5-19.9,4.6-7.5,9-15.5,13.2-24.1,4.2-8.6,8.3-17.4,12.3-26.5,4-9.1,7.8-18.1,11.3-27,6.1-15.1,12.3-30.6,18.6-46.5,6.4-15.9,13.1-31.2,20.1-46,.4-.9,1.2-1.4,2.3-1.4s2.2.5,3.2,1.4c.4.4.6.9.6,1.5s-.2,1.7-.6,3.2c-1.2,4.3-2.5,8.5-4.1,12.6-1.6,4.1-3,8.3-4.4,12.6-.4,1.5-.8,3.1-1.2,4.8-.4,1.7-.8,3-1.2,3.9-2,5.8-4.3,13.2-7,22.3-2.7,9.1-5.5,19-8.4,29.9-2.8,10.8-5.5,22.2-7.9,34-2.5,11.9-4.3,23.5-5.6,34.9-1.3,11.4-1.8,22.2-1.6,32.4.2,10.2,1.6,19,4.1,26.5,1,3,2.2,5.6,3.8,7.8,1.6,2.2,3.5,3.4,5.9,3.4s4.5-1.2,7-3.6c1.6-1.5,3.1-3.5,4.7-5.9,1.6-2.4,3.3-5.5,5.3-9.2,2.5-4.9,5.7-11.7,9.4-20.6,3.7-8.9,8.1-19.8,13.2-32.9.8-2.1,1.6-4.2,2.5-6.4.9-2.2,1.5-3.9,1.9-5,1-2.8,1.5-4.4,1.5-4.8,0-.7.5-1.3,1.5-1.7.6-.2,1.3,0,2.1.8.4.4.4,1.1,0,2.2-.4,1.1-1.6,4.2-3.5,9.2-3.5,9.3-6.7,17.6-9.5,24.7-2.8,7.1-5.4,13.3-7.8,18.6-2.3,5.3-4.5,9.9-6.3,13.7-1.9,3.8-3.6,7.1-5.1,9.7-1.8,3.2-4.2,6.4-7.2,9.8-3,3.4-6.8,4.9-11.3,4.5-3.5-.4-6.6-2.1-9.1-5.3-1.8-2.1-3.3-4.4-4.5-7-1.3-2.6-2.3-5.4-3.1-8.3-.8-2.9-1.4-5.7-1.8-8.5-.4-2.8-.7-5.2-.9-7.3-1-11.8-.5-24.8,1.5-39.1,2-14.3,4.6-28.5,7.9-42.7,3.3-14.2,6.9-27.7,10.7-40.6,3.8-12.9,6.9-23.9,9.2-33.1,0-.4-.8,1.5-2.5,5.5-1.7,4-3.7,8.9-6,14.6-2.4,5.7-4.8,11.7-7.3,17.9-2.5,6.3-4.7,11.5-6.5,15.8-3.1,8-6.5,16.2-10,24.4-3.5,8.2-7.1,16.3-10.9,24.1-3.7,7.8-7.6,15.3-11.7,22.4-4.1,7.1-8.4,13.6-12.9,19.6-1.6,2.1-3.5,4.4-5.7,7.1-2.2,2.7-4.8,5.2-7.6,7.4-2.8,2.2-5.8,4-8.8,5.2-3,1.2-6,1.4-9,.7-3.7-.9-6.6-3.3-8.5-7.1-2-3.8-3.3-8.1-4.1-12.9-.8-4.8-1.2-9.6-1.2-14.4s0-8.8.3-11.8c1.2-17.9,3.7-36,7.6-54.1,3.9-18.1,8.4-35.9,13.5-53.2,2-6.9,3.6-12.8,5-17.8,1.4-4.9,2.5-9.2,3.4-12.8.9-3.5,1.6-6.5,2.2-8.8.6-2.3,1-4.2,1.2-5.7.8-3.4,1-5.6.7-6.6-.3-1-2.4-.2-6.3,2.4-1.8,1.3-3.8,3.1-6.2,5.5-2.3,2.3-4.7,5-7.2,7.8-2.4,2.9-4.9,6-7.3,9.3-2.4,3.3-4.6,6.4-6.6,9.4-4.3,6.9-7.9,13.8-10.9,20.7-2.9,6.9-4.9,13.1-5.9,18.5-.8,4.5-.6,9.1.6,13.7.4,1.5.6,2.4.7,2.8,0,.4,0,.8-.4,1.1-.8.6-1.7.6-2.6,0-1-1.3-1.6-3.2-1.9-5.7-.3-2.5-.4-4.3-.4-5.5ZM815.7,715l-1.2.6c-2.9,1.5-5.2,3.3-7.1,5.6-.6,1.1-1.1,2.3-1.6,3.5-.5,1.2-.7,2.4-.7,3.5s0,1,.1,1.4c0,.4.2.7.4,1.1.4.6.9,1.1,1.5,1.5.6.5,1.1.9,1.5,1.3.6.2,1.5.3,2.6.3s2.2,0,3.2-.3c2.7-.7,5.1-2,7-3.6,3.9-3.7,6.2-9.1,6.8-16v-2c-1,.2-1.9.3-2.6.3-.8.2-1.6.3-2.3.4-.8,0-1.4.2-1.8.4-2.1.5-4.1,1.2-5.8,1.9ZM609.9,726.2c.4-4.7,1.3-10.3,2.8-17,1.5-6.6,3.3-13.4,5.4-20.3.4-.9.9-2.3,1.5-4.1.6-1.8,1.2-3.5,1.8-5.3.6-1.8,1.1-3.4,1.6-4.8.5-1.4.7-2.2.7-2.4.2-.6.8-1,1.8-1.4,1-.2,2-.2,2.9,0,1.4.7,1.8,2.9,1.2,6.4,0,.4-.2,1.6-.7,3.6-.5,2.1-1,4.3-1.6,6.7-.6,2.4-1.2,4.6-1.8,6.6-.6,2-1.1,4.1-1.6,6.3-.5,2.2-1.1,4.8-1.8,7.7-.7,2.9-1.5,6.4-2.5,10.5,0,.2.2-.1.7-1,.5-.8,1-2,1.6-3.5.8-1.5,2.1-3.9,4.1-7.1,2-3.3,4.2-6.7,6.7-10.2,2.5-3.5,5.1-6.6,7.6-9.2,2.5-2.6,4.8-3.9,6.7-3.9s2.2.5,2.9,1.4c.4.4.7,1,.9,1.8.2.8.3,2.3.3,4.3s-.1,3.7-.3,6c-.2,2.3-.2,4.6,0,6.9.2,2.2.7,4.3,1.5,6.3.8,2,2.3,3.4,4.4,4.3,2.7,1.1,5.6,1.7,8.5,1.7s5.5-.3,8.4-1c2.8-.6,5.5-1.4,8.1-2.4,1.2-.4,2.2-.7,3.2-1,.2-.4.5-.7.8-1.1,3.6-5.1,7.8-9.9,12.6-14.4,4.8-4.5,9.9-8.3,15.3-11.4,5.4-3.1,10.6-4.6,15.7-4.6s6.4.8,9.1,2.4c2.7,1.6,4.4,4.2,5,8,.6,3.4-.1,6.9-2.1,10.6-.4.6-.7,1-.9,1.4-.2.4-.4.8-.6,1.1-.8.7-1.5.9-2.2.6-.7-.4-.8-1-.4-2l.6-1.1c2.7-5.4,3.4-9.3,2.1-11.6-1.4-2.3-3.7-3.5-7-3.5s-8.8,1.4-13.5,4.1c-4.7,2.7-9.2,6-13.5,9.9-4.3,3.9-8.2,8.1-11.7,12.5-3.5,4.4-6.2,8.3-7.9,11.6-2,3.2-3.3,6.2-4,9-.7,2.8.3,4.2,3.1,4.2s3.8-.7,6.7-2c2.7-1.3,5.4-2.8,8.1-4.3,2.6-1.6,5.3-3.2,8.1-4.9,1.6-1.1,3.7-2.6,6.3-4.5,2.6-1.9,5.4-3.7,8.4-5.6,2.9-1.9,5.8-3.5,8.7-4.9,2.8-1.4,5.2-2.2,7.2-2.4,2-.2,3.3.3,4,1.4.7,1.1,1.2,2.4,1.6,3.9,1,4.3,2.5,7.7,4.7,10.1,2.1,2.4,5.9,3.8,11.2,4.2,3.7.2,7.9-.2,12.5-1.3,4.6-1,9.2-2.4,13.9-4.1,4.7-1.7,9.3-3.5,13.9-5.6,4.5-2,8.6-3.9,12-5.5,4-2.1,8.5-3.5,13.6-4h2.3v-1.1c0-.2,0-1-.1-2.4-.1-1.4-.2-2.9-.4-4.6-.4-4.1-.6-7.9-.6-11.5s.2-6.1.6-7.6c1.2-6.9,4.3-10.4,9.4-10.4s5.2,1.8,6.2,5.3c.4,2.1.4,3.6,0,4.8-.4.9-1,1.5-1.8,1.8-.8.3-1.4,0-1.8-1,0-.4,0-.8.3-1.4.2-.6.2-1.4,0-2.5-.2-.7-.4-1.4-.6-2.1-.2-.7-.5-1-.9-1-.8,0-1.4.6-1.8,1.7-1.2,1.9-1.9,4.3-2.2,7.3-.3,3-.1,7.8.4,14.3,0,.9,0,2.1.1,3.4,0,1.3.1,2.4.1,3.4l.3,3.1h.6c3.7,0,6.8,0,9.4.1,2.5,0,5,.1,7.3.1s4.9-.2,7.6-.7c2.7-.5,6-1.3,9.7-2.4,1.4-.5,2.4-.7,2.8-.6,1.5-2.4,3.2-4.7,5.2-6.9,2.2-2.6,5-5.3,8.7-8.1,3.6-2.8,7.2-4.7,10.7-5.6,2.9-.9,5.8-1,8.5-.3,2.7.7,4.4,2.4,5,5,.6,2.4,0,5-1.8,7.8-1.8,2.8-4.1,5.3-6.9,7.6-2.8,2.2-5.9,4.1-9.1,5.6-3.2,1.5-6,2.2-8.4,2.2s-2.8-.3-3.8-.8c-1.6-.7-1.9-1.6-.9-2.5.6-.6,1.3-.7,2.1-.3,1.8.8,4.2.5,7.3-.7,3.1-1.2,6.2-2.9,9.1-5,2.9-2.1,5.3-4.5,7.2-7,1.9-2.5,2.4-4.7,1.6-6.6-.4-.9-1.3-1.2-2.6-.8-1.8.2-4,1.1-6.8,2.7-2.7,1.6-4.8,2.9-6.2,4.1-2.3,1.7-4.7,3.9-7,6.6-2.3,2.7-4.1,5.1-5.3,7.1-2.2,3.7-3.7,7.4-4.6,10.9-.9,3.6-1,6.7-.4,9.5.6,2.8,2,5.1,4.1,6.9,2.2,1.8,5.2,2.7,9.1,2.7,5.1.2,10.5-.6,16.1-2.4,5.7-1.8,11.3-4,17-6.6,5.1-2.2,10.9-4.9,17.3-8.1,6.5-3.2,12.2-6,17.3-8.4,15.7-7.7,31.7-14,48.1-18.9,16.4-4.9,33.6-7.4,51.4-7.4s8.9.2,14.2.7c5.4.5,10,1.5,13.9,2.9,4.5.9,9.2,2.4,14.1,4.5,4.9,2.1,9.7,4.7,14.4,7.8,2.9,1.9,4.7,3.3,5.3,4.2.4.9.4,1.8,0,2.5-.6.9-1.5,1.4-2.6,1.4s-2.9-.9-5.3-2.8c-3.5-2.6-6.8-4.9-9.8-6.7-3-1.9-6.2-3.5-9.4-4.9-3.2-1.4-6.6-2.6-10.1-3.5-3.5-.9-7.5-1.7-12-2.2-4.3-.4-9.4-.6-15.3-.6s-11.6.5-17.3,1.4c-12.9,1.5-25.1,4.1-36.5,7.7-11.5,3.6-22.9,8.2-34.5,13.6-6.9,3.4-13.7,6.8-20.7,10.2-7,3.5-13.8,6.7-20.7,9.7-6.1,2.6-12,4.8-17.9,6.6-5.9,1.8-11.6,2.7-17,2.7-6.7.2-11.6-1.1-15-3.9-3.3-2.8-5.3-6.4-5.9-10.8-.6-4.4,0-9.2,2.1-14.6.5-1.3,1-2.6,1.7-3.9-3.9,1.4-7.8,2.2-11.6,2.2-4.7,0-9,.1-12.9.1s-2.7,0-4,.1c-1.3,0-2.4.1-3.4.1h-2.9c-.4,0-.6.6-.6,1.7-.6,5.8-2.1,10.8-4.5,15-2.5,4.2-6.7,7.1-12.8,8.8-1.2.4-2.7.6-4.7.6s-3.4,0-4.4-.3c-2.4-.6-4.3-1.7-5.7-3.5-1.5-1.8-2.1-3.8-1.9-6,.3-2.6,1.1-5,2.3-7.1l-.5.3c-4.7,2.1-9.5,4.1-14.5,5.7-5,1.7-10,3.1-15,4.2-5,1.1-9.7,1.6-14.2,1.4-5.1-.2-9.7-1.4-13.9-3.8-4.2-2.3-6.8-6-7.8-11.1-.2-.9-.4-1.8-.6-2.5-.2-.7-.8-1-1.8-.8-1,.2-2.6.9-4.8,2.1-2.3,1.2-4.6,2.6-6.9,4.2-2.3,1.6-4.6,3.1-6.7,4.6-2.2,1.5-3.7,2.5-4.7,3.1-3.5,2.4-7,4.7-10.4,6.9-3.4,2.2-7,4-10.7,5.5-1.2.6-2.3.9-3.4,1.1-1.1.2-2.1.3-3.1.3-3.9,0-6.4-1.7-7.3-5.2-1-3.5-.7-7.2.9-11.3.8-2.5,2.1-5.2,3.8-8.2-3.1.9-6.7,1.7-10.7,2.6-4.4.9-8.5.9-12.2,0-3.7-.9-6.6-2.4-8.5-4.3-2-2-3.3-4.2-4.1-6.7-.8-2.5-1.2-5.3-1.3-8.4-.1-3.1-.3-6.2-.4-9.4v-1.7l-.6.6c-.2.2-.4.3-.6.4-.2,0-.5.3-.9.7-2.5,2.6-5.1,5.7-7.8,9.4-2.6,3.6-5.1,7.5-7.5,11.6-2.4,4.1-4.5,8.2-6.5,12.3-2,4.1-3.5,7.9-4.7,11.5,0,1.9-.8,2.8-2.3,2.8s-1.3,0-1.5-.3c-1.4-.4-2.2-1.1-2.3-2.2-.4-.9-.6-2.2-.7-3.9,0-1.7,0-3.5.4-5.6ZM449.6,749.5c3.1-10.8,7.9-21.1,14.4-30.8,6.5-9.7,13.6-18.8,21.4-27.2,6.8-7.3,14.1-13.8,21.7-19.6,7.6-5.8,16.5-11.8,26.7-17.9-2.2.7-5.2,1.8-9.1,3.1-3.9,1.3-7.8,2-11.7,2s-6.6-.9-9.1-2.7c-2.5-1.8-3.8-5.2-3.8-10.2-.2-4.3.7-9,2.8-14,2.1-5,4.3-9.4,6.6-13.2,3.9-6.2,8.6-12.2,13.9-18.1,5.4-5.9,11.2-11.1,17.5-15.7,6.3-4.6,12.7-8.4,19.2-11.4,6.6-3,12.9-4.6,18.9-4.8,4.3-.2,7.9.7,10.9,2.5,2.9,1.9,4.3,4.8,4.1,8.7-.2,2.8-1.1,5.7-2.6,8.8-1.6,3.1-3.5,6-5.7,8.8-2.3,2.8-4.8,5.4-7.5,7.7-2.7,2.3-5.4,4.1-7.9,5.2-1.6.7-2.9.8-4,.1-1.1-.7-1.4-1.8-1-3.5.6-1.5,1.9-3.4,3.8-5.6,1-.6,1.7-.8,2.1-.8,1.4,0,1.9.7,1.5,2,0,.6-.5,1.1-1.5,1.7-.6.6-1.2,1.2-1.8,2-.6.8-.8,1.2-.6,1.4,2-.7,4.1-2.1,6.5-4.2,2.3-2.1,4.5-4.3,6.6-6.9,2.1-2.5,3.8-5.1,5.3-7.7,1.5-2.6,2.4-4.9,2.8-6.7,1-3.7.4-6.1-1.8-7.1-2.2-1-4.9-1.2-8.2-.4-6.3,1.3-12.4,3.4-18.3,6.3-6,2.9-11.7,6.4-17.2,10.5-5.5,4.1-10.5,8.6-15,13.6-4.5,5-8.4,10.2-11.7,15.8-7.4,12.3-11.1,21.3-11,26.8,0,5.5,5.3,7.3,15.7,5.5,5.1-.9,10.9-2.4,17.5-4.5,6.6-2.1,12.2-4.1,16.9-6.2,2.2-.9,3.6-1.4,4.3-1.5.7,0,1.4.1,2.2.7.6.6.9,1.4,1,2.4,0,1-.1,2-.7,2.9-.4.4-.7.7-.9.8-.2.2-1,.6-2.3,1.1-10.6,4.7-21.2,10.5-31.8,17.4-10.7,6.9-20.7,14.7-30.1,23.4-9.4,8.7-17.7,18.1-24.8,28.2-7.1,10.1-12.4,20.6-15.7,31.7-2.7,9-4.2,16.9-4.4,23.7-.2,6.8.8,12.5,2.9,17,2.2,4.5,5.3,7.8,9.4,9.8,4.1,2.1,9,2.9,14.7,2.5,9.6-.9,19.9-4.6,30.8-11.1,11-6.4,21.7-14.1,32.1-23,10.5-8.9,20.2-18,29.2-27.5,9-9.4,16.2-17.5,21.7-24.2,5.3-6.2,7.9-9.4,7.9-9.8,0-.7.7-1,2.2-.8,1.5.2,1.9,1,1.3,2.5-.2.4-.7,1.1-1.6,2.2-.9,1.1-2,2.4-3.4,3.9-4.1,4.9-9.1,10.6-14.8,17.1-5.8,6.5-12.1,13.2-19.1,20-7,6.8-14.3,13.5-22,20-7.7,6.5-15.6,12.4-23.6,17.5-8,5.1-16,9.3-23.9,12.5-7.9,3.2-15.5,4.7-22.8,4.5-6.9-.2-12.4-2-16.6-5.6-4.2-3.6-7.2-8-9.1-13.5-1.9-5.4-2.7-11.5-2.5-18.2.2-6.7,1.3-13.4,3.2-19.9Z"/>
</svg>