<?xml version="1.0" encoding="UTF-8"?>
<svg id="Capa_1" data-name="Capa 1" xmlns="http://www.w3.org/2000/svg" viewBox="0 0 592 345.48">
  <defs>
    <style>
      .cls-1 {
        fill: #fff;
      }
    </style>
  </defs>
  <path class="cls-1" d="M131.39,215.63c2.36-2.08,5.3-3.43,7.68-5.51,6.34-5.52,9.97-13.48,11.44-21.65.96-41.13.79-82.56.09-123.67-6.99-10.97-17.34-21.22-28.19-28.41-17.68-11.72-31.24-13.01-52.06-9.53-1.37.23-11.24,3.37-8.34-.67,36.64-9.89,73.55-3.33,103.38,19.98,36.19,28.28,52.95,70.19,71.64,110.61.26.56.39,1.16.38,1.77l1.21-.47,52.76-100.71c.28-.25,2.27-1.43,2.41-1.43h37.67l-4.07,2.89c-6.28,5.33-7.97,12.39-8.43,20.35-.89,15.47.64,31.86.1,47.41l1.12.79c6.71-6.06,15.79-11.13,24.61-13.29,2.49-.61,8.76-1.08,10.22-2.26,1.28-1.04,4.94-12.33,6.12-14.98,10.67-24.09,27.32-39.55,53.43-45.38,23.24-5.19,47.33-2.56,70.92-2.72l-4.58,3.33c-4.36,4.53-5.69,10.49-6.45,16.57.41,36.45-2.19,74.43-.51,110.78.33,7.09,1.3,18.09,6.25,23.48l6.25,4.54h-55.66c14.13-12.2,13.26-30.71,9.92-47.56-4.48-22.63-28.29-36.18-49.65-40.05-2.36-.43-8.22-1.76-9.71.09-1.01,1.25-2.12,9.82-2.38,12.01-6.13,51.71,19.65,120.93-43.2,145.75-22.9,9.04-51.52-2.16-69.78-16.55-46.05-36.29-66.22-114.7-93.57-165.89-5.15-9.65-11.23-19.15-18.48-27.32v117.71c0,8.14,5.86,18.34,12.25,23.24l10.3,6.73h-45.1ZM441.83,150.9v-83.67c0-2.27-1.55-8.67-2.7-10.73-4.37-7.87-18.82-3.31-24.97.34-15.21,9.02-27.74,36.04-31.03,52.9-.16.83-.8,3.35,0,3.79,18.61,2.18,35.66,10.26,48.65,23.7l10.06,13.68ZM331.47,215.15h-57.1l5.47-3.89c5.86-6.39,5.94-15.53,7-23.69v-114.83c-2.07,2.22-3.57,5.42-5.04,8.14-14.11,26.12-27.23,52.79-41.6,78.78l-.26,4.31c11.56,29.25,20.54,60.37,38.84,86.33,16.36,23.21,35.33,36,63.09,20.55,25.57-14.23,27.2-34.13,22.56-61.06-5.13-29.76-19.27-59.58-10.9-90.36.13-3.15-5.81-1.85-7.84-1.55-7.7,1.14-14.74,4.74-20.88,9.34-1.96,1.46-5.27,3.44-5.7,5.82-.09,18.33-.5,36.75.38,55,.42,8.66-.38,16.97,6.69,23.52l5.28,3.59Z"/>
  <path class="cls-1" d="M90.61,324.47c-.24-1.62,1.32-.56,2.43-1.65.48-.47,1.1-20.75.27-22.74l-2.22-1.5c1.82.25,4.94-.67,6.27.69l10.04,19.93,8.26-19.79c1.38-2.23,4.39-.27,6.62-.82-.54,1.46-2.53.55-3.41,1.62-1.23,1.5.19,16.65.54,21.61.34,1.83,1.34,1.42,2.62,1.71.74.17.85-.36.73.94h-9.6l2.9-1.76-.74-18.87-9.12,20.62-10.3-20.13c.14,5.07-.05,18.1.43,18.5,1.16.99,2.73.11,2.44,1.63h-8.16Z"/>
  <path class="cls-1" d="M327.63,309.61c0,1.81-2.08.45-3.3,2.21-.31.45-3.01,7.15-2.89,7.54,1.9,2.21,5.17,2.78,7.5,4.04.56.3.81-.02.61,1.07-4.09.31-7.22.13-10.32-2.79-10.08,8.91-23.99-1.66-10.83-10.92-1.42-3.06-2.65-5.69-1.51-9.17,2.11-6.47,15.05-5.13,10.76,3.08-1.34,2.57-4.28,3.43-5.84,5.63.93,1.15,7.44,8.82,8.62,7.94.42-1.74,1.8-5.69.38-7.08-.78-.76-2.68.02-2.29-1.55h9.12ZM310.7,299.16c-2.77.83-.92,9.89.85,9.49.24-.05,2.78-2.71,3.06-3.18,2.1-3.54.52-7.63-3.91-6.31ZM309.82,312.07c-1.46-.84-3.31,2.57-3.57,3.73-1.52,6.71,7.01,9.5,11.79,5.78.54-.77-4.66-4.82-5.52-5.74-.62-.65-2.49-3.66-2.69-3.77Z"/>
  <path class="cls-1" d="M253.26,319.2v-17.02c0-2.02-2.51-2.46-3.36-3.6h8.16l-3.36,2.16v24.21l-1.66-.5-18.01-21.56v19.42c0,.5,2.21,1.35,2.88,1.2v.95h-7.68c-.38-1.63,1.95-.75,2.65-1.91l.22-21.33c-.49-2.55-2.95-.72-2.86-2.65l6.23.24,16.8,20.38Z"/>
  <path class="cls-1" d="M407.65,298.23c20.71-3.01,21.41,24.58,4.14,26.67-18.84,2.28-20.93-24.23-4.14-26.67ZM406.19,299.65c-10.41,2.11-7.91,27.61,7.72,23.54,2.56-.67,5.1-3.61,5.87-6.12,2.9-9.42-2.75-19.62-13.59-17.42Z"/>
  <path class="cls-1" d="M492.56,298.22c20.84-3.26,22.03,24.68,4.15,26.68-18.47,2.07-20.61-24.11-4.15-26.68ZM491.6,299.65c-7.93,1.45-7.88,13.79-4.11,19.23,5.51,7.96,16.91,5.59,18.1-4.29,1.1-9.07-4.2-16.73-13.99-14.94Z"/>
  <path class="cls-1" d="M156.34,324.47c-.34-1.81,1.89-.39,3.17-1.39.74-.58.62-1.37.7-2.18.43-4.47.49-15.29-.08-19.65-.42-3.26-2.34-.49-3.79-2.67,4.57.82,14.15-2.47,17.21,2.22,2.55,3.91-.24,8.01-3.77,10,2.85,3.99,5.67,8,9.35,11.27l4.07,2.4c-5.49.63-6.71-.24-10.06-4.09-1.13-1.3-5.26-7.83-5.77-8.13-1.04-.63-3.09-.08-4.32-.24v9.35c0,2,2.15,2.53,3.84,2.16v.96s-10.55,0-10.55,0ZM163.06,301.7c-.39,2.39.29,5.64,0,8.15l.79.64c9.56,2.21,10.27-12.84.47-10.89-.51.18-1.18,1.62-1.26,2.09Z"/>
  <path class="cls-1" d="M428.39,324.47c-.24-1.62,1.32-.56,2.43-1.65.48-.47.79-1.31.9-1.98.54-3.26.46-15.73.05-19.18-.31-2.58-2.24-1.31-3.38-3.09l6.51.44,16.52,20.17v-17.98c0-1.04-1.8-2.05-2.88-1.68v-.96h7.68v.96c-1.21-.51-3.36,1.15-3.36,2.16v23.25c-.96.11-1.59-.81-2.17-1.43-6.1-6.58-11.26-14.58-17.51-21.1v18.94c0,1.01,2.15,2.67,3.36,2.16v.96h-8.16Z"/>
  <path class="cls-1" d="M124.67,324.47c-.22-1.26.19-.74.69-1,1.29-.67,2.57-.81,3.25-2.5l9.45-22.59,1.24-.29,11.35,23.67c.47,1.8,3.46,1.04,3.29,2.71h-10.08c-.37-1.68,1.49-.59,2.4-1.21l.8-.94-3.75-8.82-10.06.23c-.53,1.95-4.32,7.87-2.03,9.33,1.31.83,3.84-.34,3.52,1.4h-10.08ZM141.95,312.01c.12-.93-3.76-9.55-4.31-9.11l-3.36,9.11h7.68Z"/>
  <path class="cls-1" d="M198.56,324.47c-.22-1.26.19-.74.69-1,1.29-.67,2.57-.81,3.25-2.5l9.45-22.59,1.24-.29,11.35,23.67c.47,1.8,3.46,1.04,3.29,2.71h-10.08c-.37-1.68,1.49-.59,2.4-1.21l.8-.94-3.75-8.82-10.06.23c-.53,1.95-4.32,7.87-2.03,9.33,1.31.83,3.84-.34,3.52,1.4h-10.08ZM215.84,312.01c.12-.93-3.76-9.55-4.31-9.11l-3.36,9.11h7.68Z"/>
  <path class="cls-1" d="M259.5,324.47c-.18-1.6,1.63-.73,2.86-1.7,2.89-2.31,7.93-19.1,10.48-23.57.28-.48.56-1.27,1.29-1.1,1.24.29,9.28,20.46,11.19,22.87l3.45,3.5h-9.6c-.39-1.72,1.49-.54,2.43-1.17,1.76-1.18-3.08-7.87-3.36-9.64l-9.8-.25c-.67,2.18-4.09,7.5-2.22,9.39,1.15,1.17,3.63-.11,3.37,1.67h-10.08ZM277.25,312.01l-3.84-9.11c-.74-.55-3.82,8.36-4.31,9.11h8.16Z"/>
  <path class="cls-1" d="M341.07,324.47c-.18-1.6,1.63-.73,2.86-1.7,2.89-2.31,7.93-19.1,10.48-23.57.28-.48.56-1.27,1.29-1.1,1.24.29,9.28,20.46,11.19,22.87l3.45,3.5h-9.6c-.39-1.72,1.49-.54,2.43-1.17,1.76-1.18-3.08-7.87-3.36-9.64l-9.8-.25c-.67,2.18-4.09,7.5-2.22,9.39,1.15,1.17,3.63-.11,3.37,1.67h-10.08ZM358.82,312.01l-3.84-9.11c-.74-.55-3.82,8.36-4.31,9.11h8.16Z"/>
  <path class="cls-1" d="M474.84,299.16l.58,5.65c-1.27.24-.84-.26-1.17-.96-.53-1.1-.54-1.79-1.45-2.89-2.89-3.51-8.63-2.25-8.45,2.64.24,6.36,12.27,6.59,12.07,14.39-.14,5.71-5.89,7.6-10.79,6.91-5.33-.75-4.6-3.51-4.6-8.11,1.36-.25.79.33,1.08,1.05.39.96.49,1.8,1.1,2.76,4.2,6.55,13.3,2.37,9.26-4.46-2.51-4.24-10.28-4.93-10.93-10.67-.82-7.21,8.12-9.02,13.31-6.32Z"/>
  <path class="cls-1" d="M382.81,298.58c-.45,1.47-2.53.46-3.36,1.68v22.06l.72.72h8.16c.4,0,2.3-1.67,2.64-2.15l1.92-3.12c-.29,2.13.75,5.05-.72,6.71h-19.43c-.35-1.82,1.87-.3,2.93-1.63,1.36-1.7-.13-18.69.43-22.1l-.45-.99c-1.02-.7-3.31.65-2.91-1.17h10.08Z"/>
  <path class="cls-1" d="M195.68,298.58c.4,1.82-1.89.46-2.91,1.17l-.38,23.22c.55.88,3.73-.25,3.29,1.51h-10.08c-.35-1.82,1.87-.3,2.93-1.63,1.36-1.7-.13-18.69.43-22.1l-.45-.99c-1.02-.7-3.31.65-2.91-1.17h10.08Z"/>
</svg>