<?xml version="1.0" encoding="UTF-8"?>
<svg id="Capa_1" xmlns="http://www.w3.org/2000/svg" version="1.1" viewBox="0 0 5435 1869">
  <!-- Generator: Adobe Illustrator 29.3.0, SVG Export Plug-In . SVG Version: 2.1.0 Build 146)  -->
  <defs>
    <style>
      .st0 {
        fill: #f5e6c5;
      }
    </style>
  </defs>
  <path class="st0" d="M2211,1637.1c-130.7-.6-263-19.9-399.3-74.3-74.8-31.9-169.6-70.9-169.6-182.8v-724c0-54.2,14.4-111.8,47.3-151.3,18.6-22,42.1-37.1,68.7-42.9l32.3-1,1.2-18.6c5.5-40.9,19.7-80.8,44.5-110.4,32.3-38.6,79.9-55.4,134-39.3l2.3,1,.4-6.7c5.5-40.9,19.7-80.8,44.4-110.4,37.1-43.9,93.8-59.9,157.7-30.2,574.8,293.7,999.9-184.6,1580.9-2.5,88.5,25.5,173.5,75.7,173.5,184.1v724.2c0,84.6-61.1,178.3-152.6,187l-31.3-1.3v1.6c-11.5,65.4-56.3,129.1-121,149.2l-24.5,4.9-2.3,23.1c-16.7,85.3-90.4,166.4-191.2,148.8-427.1-95.3-803.7,73.1-1195.6,71.7ZM2226.8,1551.4c346.1-2.3,687.8-143.4,1087.5-90.1l108.6,19.3c43.2,7.4,92.2-37.6,92.2-100.5v-724c0-48.6-31.2-78-112.1-101.5-547.8-171.6-987.9,307.2-1593.9-2.5-27.6-12.8-42.1-5.7-53.5,8.1-15.7,18.6-27.1,53.5-27.1,95.9v724c0,46.6,28.9,65.7,116,103,130.1,51.8,256.3,69.2,382.2,68.3ZM2265,1498.6c-113.1,2.3-227.3-12.6-343.7-59-22.8-9.1-30.5-37.6-15.2-56.7,30.7-39.3-27-105-70.1-79.3-24.5,14.6-55.6-3-55.6-31.5v-447.3c0-27.8,30.2-45.5,54.5-31.9,37.6,20.7,83.1-21,68-80.2-7.5-29.3,21.8-54.5,49.6-42.9,489.7,203.5,891.9-241.1,1388.3-64.8,27.4,9.7,33.2,46.1,10,63.8-50.6,38.6-.7,119.4,68.6,105.3,22.6-4.6,43.9,12.8,43.9,36v445.1c0,32.2-38.7,48.7-62.1,26.4-22.6-21.6-44.8-17-60.3-1.3-16.7,17-24.2,46.8-4.9,76.1,18,27.4-6.7,62.9-38.7,55.8-362.2-80.5-692.9,79.6-1032.4,86.4ZM2215.2,1425.2c20.3.4,40.8.4,61.1-.3,299.5-9.6,600.3-143.9,942.6-100.7l32.9,5.7-.4-2.5c-2-38.1,13.1-74,37.4-98.8,25.4-25.7,61.4-39.7,98.2-33.9l2.9.9v-347.5l-7.4-.4c-89.3-12.3-146.5-105.2-118.8-181l3.8-7.7-37.7-9c-401.2-82.1-769.4,240.3-1209.9,120.2l-43.7-13.3-2.8,19.7c-14.1,50.2-52.8,87.9-99.8,95l-19.9-.4v353.6l8.3-.4c70.1,3.5,131.6,72.5,126,142.4l-2.9,17,45.7,15.1c61.6,16.5,123,24.5,184.3,26.4ZM2323.4,1373.6c-10.7,1.3-21.2-2.5-27.4-11.3-118.5-171.1-132.6-315.5,1-529.3,10.6-17,31.6-24.1,46.8-16,15.4,8.1,19.3,28.6,8.7,45.7-116.3,186.1-105.4,301.2.7,454.4,9.9,14.2,5.1,36-10.7,48.4-5.9,4.6-12.5,7.1-19.1,8ZM2636,1343.5c-18.9,2.9-33.9-9.7-33.9-28.4v-37l-22.3.7c-46.4-4.1-90.1-24.2-112.1-67.9-8-15.5-.7-36.8,16.1-47.4,16.8-10.7,37-6.7,45.1,9,17,33.8,66.6,46.6,116.9,33.2,43.1-11.5,81.8-41,81.1-86.3-.9-19.6-8.7-27.6-21.5-32.8-16.2-6.7-39.6-8-70.9-9.1-28.3-1.2-63.7-1.9-92.7-12.9-31.9-12-56.7-36.7-62.4-81.4v-1.7c-5.5-77.2,49-136,112.6-159l10.2-2.5v-29c0-18.4,15.1-36.1,33.9-39,18.6-3,33.6,9.7,33.6,28.1v33.1l19.7,1c33.1,7,64.1,23.1,88.9,50.6,11.6,12.9,9,34.5-5.7,48.3-14.6,13.8-35.8,14.8-47.3,1.9-33.6-37-82.2-42.5-120.4-28.6-16.4,5.9-30.2,14.9-40,25.8l-5.2,8.1-10.4,22.6-2.5,9.3v13.2c-.1,0,.9,6.4.9,6.4l2.8,5.4,18.1,19.7,5.2,3.2c18.1,6.7,42.5,8,73.4,9,27.3,1.2,63.5,1.9,91.4,13.2,31.5,12.9,54,38.9,55.7,84.6.9,43.2-16.7,80.8-44.2,109.4-13.6,14.1-29.2,25.7-46.3,34.8l-34.1,14.1v39.3c0,18.6-15.1,36-33.6,39ZM3601.5,1303.8l.9-.3c31.9-13.1,59.6-51.6,59.6-96V483.2c0-48.3-31.3-78-112.1-101.2-548-171.7-988.2,307.1-1593.9-2.5-27.7-12.9-42.1-5.8-53.7,8-15.5,18.4-27.1,53.5-27.1,95.7h-9.6l35.1,16.7c549.6,240.2,962.9-204.7,1527.3-28,88.5,25.7,173.5,75.9,173.5,184.2v647.8ZM2925.9,1278c-6.5,1.3-13.2.7-19.1-2-15.7-7.5-20.6-27.4-10.7-44.8,106.2-186.8,117.2-305.5.9-454.8-10.4-13.8-6.8-35.4,8.6-48.4,15.4-13.1,36.4-12.6,47,1.2,133.3,171.3,119.5,320.1.9,528.8-6.4,10.9-16.7,18-27.4,20.2ZM3748.2,1168.2l2.8-15.8c43.2,7.5,92.2-41,92.2-100.2V328c0-48.6-31.2-78-112.1-101.5-548-171.6-987.9,307.2-1593.9-2.5-27.4-12.9-42.1-5.7-53.5,8.1-15.5,18.4-27.1,53.5-27.1,95.9h-7.1l50.5,20.2c522.4,190.1,930-219.6,1474.9-48.9,88.3,25.5,173.3,75.7,173.3,183.9v685Z" marker-end="none" marker-start="none"/>
</svg>