<?xml version="1.0" encoding="UTF-8"?>
<svg id="Capa_2" data-name="Capa 2" xmlns="http://www.w3.org/2000/svg" viewBox="0 0 497 399">
  <defs>
    <style>
      .cls-1 {
        fill: #fff;
      }
    </style>
  </defs>
  <g id="Layer_1" data-name="Layer 1">
    <g id="icon">
      <path class="cls-1" d="M257,8c-18-8-37-4-51,1l-96,93c-2,2-5,4-9,4h-53c-25,0-46,19-47,44-2,29-2,58,0,85,1,25,22,44,47,44h53c3,0,6,1,9,4l96,93c9,9,21,13,33,13s13-1,19-4c18-8,29-24,29-43V51c0-19-11-36-29-43Z"/>
      <path class="cls-1" d="M366,94c-7-7-18-7-25,0-7,7-7,18,0,25,43,43,43,113,0,156-7,7-7,18,0,25,3,3,8,5,12,5s9-2,12-5c56-56,56-148,0-205Z"/>
      <path class="cls-1" d="M417,5c-7-7-18-7-25,0-7,7-7,18,0,25,45,45,69,104,69,167s-25,122-69,167c-7,7-7,18,0,25,3,3,8,5,12,5s9-2,12-5c51-51,79-119,79-191S468,56,417,5Z"/>
    </g>
  </g>
</svg>